<svg width="500" height="500" viewBox="0 0 500 500" fill="none" xmlns="http://www.w3.org/2000/svg">
<g filter="url(#filter0_d_810_493)">
<path d="M67.2699 100.633L69.1326 101.265C71.3671 102.023 73.7156 102.39 76.0748 102.349L76.409 102.344C77.4136 102.326 78.4151 102.227 79.4036 102.047L80.0466 101.93C82.2322 101.533 84.3067 100.67 86.1294 99.3998C87.6291 98.3551 88.932 97.0533 89.9781 95.5547L91.8617 92.8563L94.8353 89.5136C96.1483 88.0376 97.6675 86.759 99.346 85.7173L100.982 84.7019L104.443 83.1162C106.367 82.2347 108.416 81.6561 110.517 81.4011L113.11 81.0865C114.449 80.9239 115.803 80.9209 117.143 81.0773L117.758 81.1491C118.869 81.2787 119.956 81.557 120.993 81.9765C122.753 82.6892 124.328 83.7945 125.597 85.2081L125.872 85.5144C126.463 86.1731 126.984 86.8919 127.425 87.6589L127.56 87.8921C128.784 90.0172 129.318 92.4696 129.09 94.9112L129.05 95.3368C128.921 96.7169 127.278 97.3644 126.242 96.4432L125.584 95.8578C124.365 94.7738 122.988 93.882 121.501 93.2134C120.03 92.5524 118.412 92.2901 116.808 92.4527L116.558 92.478C114.79 92.6572 113.1 93.2985 111.659 94.3376L111.319 94.5826C109.646 95.7889 108.254 97.3439 107.24 99.1403L106.975 99.6094C105.788 101.711 104.971 104.024 104.582 106.406L104.434 107.309L104.118 110.004C103.997 111.035 103.993 112.077 104.106 113.109C104.323 115.077 104.962 116.976 105.98 118.674L106.034 118.765C106.404 119.381 106.82 119.969 107.278 120.522L108.641 122.168C109.747 123.504 111.051 124.662 112.507 125.604C113.406 126.185 114.359 126.68 115.351 127.082L115.898 127.303C116.805 127.671 117.737 127.973 118.687 128.207L120.107 128.557C121.035 128.786 121.979 128.942 122.93 129.023C124.608 129.166 126.298 129.075 127.952 128.755L128.045 128.737C129.462 128.462 130.843 128.026 132.161 127.437L133.659 126.767L137.478 124.629L138.581 124.176C140.345 123.452 142.295 123.316 144.142 123.79C145.158 124.05 146.119 124.489 146.982 125.086L147.566 125.491C148.253 125.966 148.891 126.507 149.472 127.107L150.483 128.149C151.619 129.32 152.611 130.623 153.438 132.029L154.439 133.731L155.129 134.766C155.981 136.044 157.311 136.926 158.82 137.213M167 111.5C167 139.943 143.943 163 115.5 163C87.0573 163 64 139.943 64 111.5C64 83.0573 87.0573 60 115.5 60C143.943 60 167 83.0573 167 111.5Z" stroke="#41D0D0" stroke-width="7" stroke-linecap="round"/>
</g>
<defs>
<filter id="filter0_d_810_493" x="0.5" y="0.5" width="500" height="500" filterUnits="userSpaceOnUse" color-interpolation-filters="sRGB">
<feFlood flood-opacity="0" result="BackgroundImageFix"/>
<feColorMatrix in="SourceAlpha" type="matrix" values="0 0 0 0 0 0 0 0 0 0 0 0 0 0 0 0 0 0 127 0" result="hardAlpha"/>
<feOffset dy="4"/>
<feGaussianBlur stdDeviation="30"/>
<feColorMatrix type="matrix" values="0 0 0 0 0 0 0 0 0 1 0 0 0 0 1 0 0 0 1 0"/>
<feBlend mode="normal" in2="BackgroundImageFix" result="effect1_dropShadow_810_493"/>
<feBlend mode="normal" in="SourceGraphic" in2="effect1_dropShadow_810_493" result="shape"/>
</filter>
</defs>
</svg>
