<?xml version="1.0"?>
<svg xmlns="http://www.w3.org/2000/svg" height="512px" viewBox="0 -9 511.99976 511" width="512px"><path d="m256.082031 168.492188c-24.8125 0-44.996093 20.1875-44.996093 45s20.183593 44.996093 44.996093 44.996093 44.996094-20.183593 44.996094-44.996093-20.183594-45-44.996094-45zm0 70c-13.785156 0-25-11.214844-25-25 0-13.785157 11.214844-25 25-25 13.785157 0 24.996094 11.214843 24.996094 25 0 13.785156-11.210937 25-24.996094 25zm0 0" fill="#FFFFFF"/><path d="m508.828125 174.011719c-4.660156-12.515625-13.917969-22.46875-26.0625-28.019531l-66.695313-30.5v-64.996094c0-27.566406-22.425781-49.996094-49.996093-49.996094h-219.984375c-27.570313 0-49.996094 22.429688-49.996094 49.996094v64.921875l-66.859375 30.574219c-12.148437 5.550781-21.402344 15.503906-26.0625 28.019531s-4.171875 26.097656 1.382813 38.242187c.082031.175782.167968.351563.257812.523438l91.28125 172.199218v17.507813c0 22.152344 14.480469 40.96875 34.46875 47.519531l7.179688 13.542969c5.578124 12.007813 15.46875 21.15625 27.890624 25.78125 5.683594 2.117187 11.585938 3.171875 17.472657 3.171875 7.078125 0 14.136719-1.523438 20.765625-4.554688l52.128906-23.835937 52.128906 23.835937c6.628906 3.03125 13.6875 4.554688 20.765625 4.554688 5.886719 0 11.792969-1.054688 17.472657-3.171875 12.417968-4.625 22.3125-13.773437 27.890624-25.78125l7.144532-13.476563c20.089844-6.488281 34.667968-25.363281 34.667968-47.585937v-17.816406l91.117188-171.890625c.089844-.171875.175781-.347656.257812-.523438 5.554688-12.144531 6.042969-25.726562 1.382813-38.242187zm-412.734375-14.398438-13.484375 6.109375c-5.015625 2.269532-7.246094 8.210938-4.980469 13.230469 2.230469 4.933594 8.332032 7.195313 13.242188 4.980469l5.21875-2.367188v74.464844s-18.433594-34.285156-18.46875-34.351562c-2.585938-4.8125-8.734375-6.652344-13.539063-4.070313-4.800781 2.585937-6.664062 8.738281-4.070312 13.542969l36.078125 67.101562v44.019532s-73.441406-138.550782-73.460938-138.585938c-7.445312-14.046875 1.09375-33.183594 14.917969-39.507812l58.542969-26.769532v22.203125zm99.460938 310.144531c-7.285157 3.332032-15.433594 3.628907-22.945313.828126-8.722656-3.25-13.886719-10.160157-18.097656-18.101563h76.0625l1.378906.628906zm143.835937.828126c-7.429687 3.007812-15.660156 2.503906-22.945313-.828126l-36.398437-16.644531 1.378906-.628906h76.0625s-5.496093 13-18.097656 18.101563zm56.679687-68.101563c0 16.542969-13.457031 30-29.996093 30h-219.984375c-16.542969 0-30-13.457031-30-30v-351.988281c0-16.539063 13.457031-29.996094 30-29.996094h219.984375c16.542969 0 30 13.457031 30 29.996094v351.988281zm93.300782-198.796875-73.300782 138.28125v-46.25l36.855469-67.039062c2.660157-4.828126.890625-10.929688-3.9375-13.578126-4.472656-2.453124-10.976562-.8125-13.589843 3.941407l-19.328126 35.160156v-72.609375s2.585938 1.175781 2.597657 1.179688c4.773437 2.167968 10.945312.082031 13.238281-4.96875 2.230469-4.910157-.109375-11.023438-4.96875-13.242188l-10.867188-4.929688v-22.144531s58.320313 26.664063 58.382813 26.691407c14.753906 6.75 21.53125 24.699218 14.917969 39.507812zm0 0" fill="#FFFFFF"/><path d="m196.085938 70.496094c0-16.539063-13.457032-30-30-30-16.539063 0-29.996094 13.460937-29.996094 30 0 16.542968 13.457031 30 29.996094 30 16.542968 0 30-13.457032 30-30zm-30 10c-5.511719 0-10-4.484375-10-10 0-5.511719 4.488281-10 10-10 5.515624 0 10 4.488281 10 10 0 5.515625-4.484376 10-10 10zm0 0" fill="#FFFFFF"/><path d="m346.074219 320.488281c-16.539063 0-29.996094 13.457031-29.996094 30 0 16.539063 13.457031 30 29.996094 30 16.542969 0 30-13.460937 30-30 0-16.542969-13.457031-30-30-30zm0 40c-5.511719 0-9.996094-4.488281-9.996094-10 0-5.515625 4.484375-10 9.996094-10 5.515625 0 10 4.484375 10 10 0 5.511719-4.484375 10-10 10zm0 0" fill="#FFFFFF"/><path d="m146.085938 360.488281c-5.507813 0-10 4.476563-10 10 0 5.507813 4.492187 10 10 10 5.519531 0 10-4.492187 10-10 0-5.523437-4.480469-10-10-10zm0 0" fill="#FFFFFF"/><path d="m146.085938 120.496094c-5.507813 0-10 4.488281-10 10v199.992187c0 5.511719 4.492187 10 10 10 5.519531 0 10-4.488281 10-10v-199.992187c0-5.511719-4.480469-10-10-10zm0 0" fill="#FFFFFF"/><path d="m289.078125 360.488281h-102.992187c-5.511719 0-10 4.488281-10 10 0 5.507813 4.488281 10 10 10h102.992187c5.507813 0 10-4.492187 10-10 0-5.511719-4.492187-10-10-10zm0 0" fill="#FFFFFF"/><path d="m226.082031 60.496094h99.992188c5.519531 0 10-4.488282 10-10 0-5.507813-4.480469-10-10-10h-99.992188c-5.511719 0-10 4.492187-10 10 0 5.511718 4.488281 10 10 10zm0 0" fill="#FFFFFF"/><path d="m366.074219 60.496094c5.519531 0 9.996093-4.488282 9.996093-10 0-5.507813-4.476562-10-9.996093-10-5.511719 0-10 4.492187-10 10 0 5.511718 4.488281 10 10 10zm0 0" fill="#FFFFFF"/><path d="m366.074219 300.488281c5.519531 0 9.996093-4.488281 9.996093-10v-199.992187c0-5.507813-4.476562-10-9.996093-10-5.511719 0-10 4.492187-10 10v199.992187c0 5.511719 4.488281 10 10 10zm0 0" fill="#FFFFFF"/><path d="m60.015625 191.492188c0 5.523437-4.480469 10-10 10-5.523437 0-10-4.476563-10-10 0-5.523438 4.476563-10 10-10 5.519531 0 10 4.476562 10 10zm0 0" fill="#FFFFFF"/><path d="m468.988281 190.492188c0 5.523437-4.480469 10-10 10-5.523437 0-10-4.476563-10-10 0-5.523438 4.476563-10 10-10 5.519531 0 10 4.476562 10 10zm0 0" fill="#FFFFFF"/></svg>
