<svg width="23" height="23" viewBox="0 0 23 23" fill="none" xmlns="http://www.w3.org/2000/svg">
<path d="M11.3014 22.0751C17.0489 22.0751 21.7057 17.4035 21.7057 11.6437C21.7057 5.88382 17.0489 1.2122 11.3014 1.2122C5.55401 1.2122 0.897141 5.88382 0.897141 11.6437C0.897141 17.4035 5.55401 22.0751 11.3014 22.0751Z" stroke="white"/>
<path d="M16.7611 11.6292C16.7726 10.5677 16.4362 9.49609 15.7772 8.66403C15.4587 8.31225 15.1968 7.91181 14.8595 7.5793C14.1158 6.8392 13.0024 6.78994 12.1067 6.32375C12.0546 5.85557 11.8838 5.3872 11.9872 4.91485C12.0187 4.75774 12.0649 4.59843 11.9815 4.44827C11.7465 3.90561 11.9484 3.31647 11.9066 2.75057C11.8753 2.455 11.8953 2.09329 11.6146 1.91075C11.5492 2.52591 11.3236 3.09837 11.1408 3.68215C11.0564 4.13701 11.0564 4.61095 10.8609 5.03999C10.9849 5.4746 10.7393 5.84048 10.4734 6.16147C9.88591 6.46339 9.18666 6.53509 8.6754 6.97784C8.31072 7.2881 7.91712 7.56003 7.50907 7.81249C7.20302 8.19665 6.8641 8.5667 6.72781 9.05195C6.1807 9.71439 6.11612 10.6035 5.80592 11.3793C5.80018 12.5312 6.03293 13.7714 6.76664 14.6947C7.29157 15.1293 7.65843 15.7139 8.18256 16.1487C8.6857 16.4498 9.22271 16.6973 9.74229 16.9684C10.081 17.0475 10.4306 17.0864 10.7676 17.1788C11.0409 18.5908 11.2275 20.0373 11.7762 21.3764C11.9583 20.8266 11.9363 20.2375 12.0934 19.6819C12.3148 18.8604 11.8604 18.0053 12.1166 17.1988C12.5005 16.8546 13.1407 17.0781 13.5666 16.7827C14.3771 16.2815 15.2348 15.7935 15.8228 15.0268C16.0416 14.586 16.5014 14.2567 16.5014 13.7279C16.5052 13.0158 16.9192 12.349 16.7611 11.6292ZM10.7444 15.9852C10.1571 15.842 9.60997 15.5603 9.11733 15.2163C8.58725 14.8621 8.38956 14.2013 7.86661 13.839C7.37694 13.2528 7.48292 12.4521 7.28226 11.7581C7.36268 11.2738 7.45757 10.7936 7.50768 10.3031C7.74657 9.91461 8.11521 9.60475 8.21742 9.13717C8.56744 8.63423 9.1005 8.28623 9.52856 7.85023C9.83995 7.49011 10.3356 7.64187 10.7446 7.62797C10.704 8.02523 10.6717 8.436 10.771 8.8279C10.8193 9.06864 10.9276 9.30581 10.8904 9.55807C10.8084 10.0942 11.0091 10.6319 10.8672 11.1618C10.5814 12.2698 10.8932 13.3883 10.9203 14.5052C10.8797 15 10.8567 15.4983 10.7444 15.9852ZM15.1968 13.8857C14.8078 14.1629 14.4764 14.5036 14.1368 14.8361C13.5467 15.2453 12.9636 15.6783 12.2612 15.8829C12.3246 15.3806 12.3864 14.8637 12.2267 14.3719C11.8349 13.2608 12.315 12.0986 12.3961 10.9749C12.3246 10.3069 12.3929 9.59422 12.0874 8.97886C12.0474 8.51664 12.2467 8.07032 12.3818 7.63531C12.8457 7.82103 13.2825 8.07171 13.6686 8.39409C14.1349 8.74447 14.8492 8.97171 14.9536 9.6252C15.0068 10.0544 15.4753 10.3141 15.4616 10.7532C15.4323 11.7972 15.5759 12.8891 15.1968 13.8857Z" fill="white"/>
</svg>
