<svg width="79" height="80" viewBox="0 0 79 80" fill="none" xmlns="http://www.w3.org/2000/svg">
<path d="M39.3161 76.6796C59.6555 76.6796 76.1322 60.1479 76.1322 39.7695C76.1322 19.391 59.6555 2.85925 39.3161 2.85925C18.9767 2.85925 2.5 19.391 2.5 39.7695C2.5 60.1479 18.9767 76.6796 39.3161 76.6796Z" stroke="#41D0D0" stroke-width="5"/>
<path d="M68.118 51.2055C65.5538 57.3388 60.4586 60.4047 52.8301 60.4047C51.432 60.4047 49.9159 60.5795 48.2859 60.9291C45.8398 61.4549 44.6168 62.1872 44.6168 63.1217C44.6168 63.4136 44.8193 63.748 45.2283 64.1286C45.6346 64.5092 45.986 64.6971 46.2763 64.6971C44.8193 64.6971 45.8096 64.7411 49.2454 64.8285C52.6825 64.9159 54.8376 64.9599 55.7119 64.9599C50.6448 67.9371 42.1694 69.3087 30.2884 69.0761C26.3845 69.0183 23.0367 67.295 20.2412 63.9077C17.5014 60.6945 16.1343 57.1027 16.1343 53.1318C16.1343 48.9282 17.546 45.3496 20.373 42.3992C23.1959 39.4523 26.7071 37.9761 30.8999 37.9761C31.8312 37.9761 33.0687 38.1805 34.6129 38.5893C36.1558 38.9981 37.1907 39.2025 37.7137 39.2025C39.8681 39.2025 42.5489 38.3127 45.7527 36.5302C48.9551 34.7491 50.4711 33.8579 50.2968 33.8579C49.7134 39.9912 47.6751 44.1094 44.1789 46.2098C41.6752 47.6709 40.4227 49.101 40.4227 50.5015C40.4227 51.3775 40.947 52.0795 41.995 52.6053C42.8104 53.0148 43.7122 53.2192 44.7026 53.2192C46.2173 53.2192 47.7025 52.286 49.1596 50.4175C50.6139 48.547 51.2563 46.8547 51.082 45.3344C50.9077 43.5829 51.0243 41.4784 51.432 39.0277C51.5473 38.3257 51.9694 37.4655 52.6976 36.4442C53.4258 35.4215 54.0812 34.7939 54.6639 34.5599C54.6639 35.0843 54.4752 35.9618 54.0956 37.1874C53.7161 38.4131 53.5287 39.3209 53.5287 39.9038C53.5287 41.1887 53.8774 42.1811 54.5768 42.881C55.6234 42.4735 56.5554 41.1591 57.3728 38.9382C58.0702 37.2459 58.4771 35.6101 58.5952 34.0334C56.1478 33.9164 53.8033 32.8077 51.5617 30.7039C49.3188 28.6 48.1987 26.3234 48.1987 23.8714C48.1987 23.4626 48.255 23.0538 48.3744 22.6443C48.7231 23.1701 49.2467 23.9884 49.9454 25.0971C50.9358 26.5567 51.6935 27.2869 52.2192 27.2869C52.9165 27.2869 53.2659 26.5567 53.2659 25.0971C53.2659 23.2286 52.7697 21.5349 51.7807 20.0161C50.6736 18.2054 49.2461 17.2997 47.4994 17.2997C46.6833 17.2997 45.4603 17.7381 43.8316 18.6142C42.1989 19.4889 40.7137 19.9286 39.376 19.9286C38.967 19.9286 37.1599 19.4015 33.9575 18.3506C39.6059 17.4181 42.4322 16.5709 42.4322 15.8104C42.4322 13.825 38.5579 12.4809 30.8127 11.781C30.0543 11.7232 28.657 11.6062 26.6186 11.43C26.8506 11.1382 28.5115 10.8168 31.5999 10.4665C34.2203 10.1761 36.0556 10.0281 37.1029 10.0281C50.9646 10.0281 59.7599 16.776 63.4873 30.2669C64.1283 29.7349 64.4496 28.845 64.4496 27.6028C64.4496 26.0034 63.9828 23.9897 63.0515 21.5624C62.7001 20.6162 62.1469 19.1943 61.3906 17.3004C66.1654 23.4027 68.5551 29.1857 68.5551 34.6425C68.5551 37.5178 67.8832 40.1295 66.5442 42.4749C65.6726 44.0599 64.0391 46.0839 61.6528 48.549C59.2644 51.0128 57.633 52.9205 56.7586 54.2701C59.9624 53.3954 62.0604 52.723 63.0508 52.255C65.2628 51.264 67.2717 49.7733 69.0788 47.7872C69.0788 48.5483 68.7583 49.688 68.118 51.2055ZM30.0255 16.778C30.0255 17.8276 29.4421 18.4999 28.2788 18.7917L26.0064 19.1427C25.1903 19.5515 23.9968 21.1578 22.4244 23.9602C22.2487 23.0854 21.9873 21.8591 21.6379 20.281C21.1136 20.3402 20.2412 20.8068 19.0175 21.6829C18.4932 22.0917 17.6476 22.7042 16.4829 23.5218C16.8343 21.4193 17.9976 19.2907 19.9791 17.1263C22.0758 14.7334 24.1142 13.5359 26.0942 13.5359C28.7146 13.5359 30.0255 14.6178 30.0255 16.778ZM45.2276 24.8362C45.2276 25.8293 44.6889 26.6627 43.6113 27.3337C42.5338 28.0061 41.4707 28.342 40.4227 28.342C39.0246 28.342 37.7714 27.5533 36.6664 25.9759C35.3246 24.0482 33.9575 22.793 32.5594 22.2066C32.8504 21.9162 33.2005 21.7696 33.6088 21.7696C34.1332 21.7696 35.0192 22.1784 36.2724 22.9953C37.5243 23.8136 38.3246 24.2224 38.676 24.2224C38.967 24.2224 39.4467 23.8136 40.1172 22.9953C40.7864 22.1777 41.529 21.7696 42.3451 21.7696C44.2668 21.7703 45.2276 22.793 45.2276 24.8362Z" fill="#41D0D0"/>
</svg>
