<?xml version="1.0" encoding="iso-8859-1"?>
<!-- Generator: Adobe Illustrator 19.0.0, SVG Export Plug-In . SVG Version: 6.00 Build 0)  -->
<svg xmlns="http://www.w3.org/2000/svg" xmlns:xlink="http://www.w3.org/1999/xlink" version="1.1" id="Capa_1" x="0px" y="0px" viewBox="0 0 365.666 365.666" style="enable-background:new 0 0 365.666 365.666;" xml:space="preserve" width="512px" height="512px">
<g>
	<g>
		<path d="M314.894,160.313c-1.073-1.676-2.708-2.914-4.612-3.492c-4.418-1.341-9.087,1.154-10.428,5.572    c-7.2,27.44-21.8,42.12-36.52,46.64c-5.171,1.642-10.67,1.971-16,0.96c-4.901-0.94-9.475-3.131-13.28-6.36    c-8.84-7.48-13.8-21-10.32-39.16v-0.24c9.4-49,21.48-112.2-75.6-163.28c-2.36-1.231-5.164-1.271-7.558-0.107    c-4.172,2.028-5.91,7.055-3.882,11.227c22.2,49.6-7.36,78.12-40.76,110.44c-17.36,16.8-35.72,34.56-49.64,56.8    c-45.92,73.48-23.4,126.88,25.68,157.48c29.56,18.4,69.04,28.2,108.64,28.84c39.6,0.64,79.48-7.84,109.84-25.92    C343.294,308.313,367.774,249.113,314.894,160.313z M281.854,325.353c-27.6,16.44-64.36,24.16-100.96,23.56    c-36.6-0.6-73-9.52-100-26.36c-41.24-25.72-59.8-71-20.28-134.4c12.8-20.52,30.28-37.32,46.88-53.56    c33.16-32,62.8-60.72,52-107.52c65.16,43.12,55.4,93.92,47.52,134v0.24c-4.72,24.8,2.84,43.96,16,55.12    c6.004,5.098,13.225,8.556,20.96,10.04c7.993,1.518,16.238,1.037,24-1.4c15.84-4.76,31.28-17.64,41.4-40    C344.134,254.273,323.694,300.433,281.854,325.353z" fill="#FFFFFF"/>
	</g>
</g>
<g>
</g>
<g>
</g>
<g>
</g>
<g>
</g>
<g>
</g>
<g>
</g>
<g>
</g>
<g>
</g>
<g>
</g>
<g>
</g>
<g>
</g>
<g>
</g>
<g>
</g>
<g>
</g>
<g>
</g>
</svg>
