<svg width="23" height="22" viewBox="0 0 23 22" fill="none" xmlns="http://www.w3.org/2000/svg">
<path d="M11.3014 21.3633C17.0489 21.3633 21.7057 16.6917 21.7057 10.9319C21.7057 5.17201 17.0489 0.500397 11.3014 0.500397C5.55401 0.500397 0.897141 5.17201 0.897141 10.9319C0.897141 16.6917 5.55401 21.3633 11.3014 21.3633Z" stroke="black"/>
<path d="M19.6142 14.2325C18.8742 16.0027 17.4036 16.8876 15.2018 16.8876C14.7983 16.8876 14.3608 16.9381 13.8903 17.039C13.1843 17.1907 12.8313 17.4021 12.8313 17.6718C12.8313 17.756 12.8898 17.8525 13.0078 17.9624C13.1251 18.0722 13.2265 18.1265 13.3103 18.1265C12.8898 18.1265 13.1756 18.1392 14.1672 18.1644C15.1593 18.1896 15.7812 18.2023 16.0336 18.2023C14.5711 19.0616 12.125 19.4575 8.69587 19.3903C7.56915 19.3737 6.60288 18.8763 5.79607 17.8986C5.00531 16.9712 4.61072 15.9346 4.61072 14.7885C4.61072 13.5753 5.01818 12.5424 5.8341 11.6909C6.64884 10.8403 7.66225 10.4143 8.87236 10.4143C9.14117 10.4143 9.49832 10.4733 9.94402 10.5913C10.3893 10.7092 10.688 10.7682 10.839 10.7682C11.4608 10.7682 12.2345 10.5114 13.1592 9.99695C14.0834 9.4829 14.521 9.22567 14.4707 9.22567C14.3023 10.9959 13.714 12.1845 12.705 12.7907C11.9823 13.2124 11.6208 13.6251 11.6208 14.0293C11.6208 14.2822 11.7722 14.4848 12.0746 14.6365C12.31 14.7547 12.5703 14.8137 12.8561 14.8137C13.2933 14.8137 13.7219 14.5444 14.1425 14.0051C14.5622 13.4652 14.7476 12.9768 14.6973 12.538C14.647 12.0325 14.6807 11.4251 14.7983 10.7178C14.8316 10.5152 14.9534 10.2669 15.1636 9.97212C15.3738 9.67696 15.563 9.49581 15.7311 9.42828C15.7311 9.57963 15.6767 9.83288 15.5671 10.1866C15.4576 10.5404 15.4035 10.8024 15.4035 10.9706C15.4035 11.3415 15.5041 11.6279 15.706 11.8299C16.0081 11.7123 16.2771 11.3329 16.513 10.692C16.7142 10.2035 16.8317 9.73138 16.8658 9.27632C16.1594 9.24256 15.4827 8.92256 14.8358 8.31535C14.1884 7.70814 13.8652 7.05108 13.8652 6.34336C13.8652 6.22538 13.8814 6.10739 13.9159 5.98921C14.0165 6.14096 14.1676 6.37713 14.3693 6.69712C14.6551 7.11841 14.8738 7.32916 15.0255 7.32916C15.2268 7.32916 15.3276 7.11841 15.3276 6.69712C15.3276 6.15784 15.1844 5.66901 14.899 5.23064C14.5795 4.70805 14.1674 4.44665 13.6633 4.44665C13.4278 4.44665 13.0748 4.57318 12.6047 4.82603C12.1335 5.07849 11.7048 5.20541 11.3187 5.20541C11.2007 5.20541 10.6791 5.05326 9.75484 4.74996C11.3851 4.48081 12.2008 4.2363 12.2008 4.01682C12.2008 3.44377 11.0826 3.05585 8.84721 2.85384C8.62832 2.83716 8.22501 2.80339 7.63669 2.75254C7.70365 2.66832 8.18302 2.57556 9.07441 2.47446C9.83071 2.39064 10.3604 2.34793 10.6627 2.34793C14.6634 2.34793 17.2019 4.29549 18.2777 8.18923C18.4628 8.03568 18.5555 7.77886 18.5555 7.42033C18.5555 6.95872 18.4208 6.37753 18.152 5.67696C18.0505 5.40384 17.8909 4.99348 17.6726 4.44685C19.0507 6.20809 19.7404 7.87718 19.7404 9.45211C19.7404 10.282 19.5465 11.0358 19.16 11.7127C18.9084 12.1702 18.437 12.7543 17.7483 13.4658C17.0589 14.1769 16.5881 14.7275 16.3357 15.117C17.2604 14.8646 17.8659 14.6705 18.1518 14.5354C18.7902 14.2494 19.37 13.8192 19.8916 13.2459C19.8916 13.4656 19.799 13.7945 19.6142 14.2325ZM8.62 4.29609C8.62 4.599 8.45163 4.79306 8.11587 4.87728L7.46 4.97858C7.22448 5.09656 6.88 5.56017 6.42619 6.36898C6.37547 6.11653 6.3 5.76257 6.19918 5.30711C6.04784 5.32419 5.79607 5.45886 5.44288 5.71172C5.29154 5.82971 5.0475 6.00649 4.71135 6.24246C4.81277 5.63565 5.14852 5.02128 5.7204 4.39659C6.32556 3.70596 6.91388 3.36035 7.48536 3.36035C8.24165 3.36035 8.62 3.67259 8.62 4.29609ZM13.0076 6.62184C13.0076 6.90846 12.8521 7.149 12.5411 7.34267C12.2301 7.53673 11.9233 7.63366 11.6208 7.63366C11.2173 7.63366 10.8556 7.40603 10.5367 6.95077C10.1494 6.39441 9.75484 6.03211 9.35134 5.86288C9.43533 5.77906 9.53635 5.73675 9.65421 5.73675C9.80555 5.73675 10.0613 5.85473 10.423 6.09051C10.7843 6.32668 11.0153 6.44466 11.1167 6.44466C11.2007 6.44466 11.3391 6.32668 11.5327 6.09051C11.7258 5.85453 11.9401 5.73675 12.1757 5.73675C12.7303 5.73695 13.0076 6.03211 13.0076 6.62184Z" fill="black"/>
</svg>
