<?xml version="1.0"?>
<svg xmlns="http://www.w3.org/2000/svg" height="512px" version="1.1" viewBox="-5 0 110 100" width="512px">
<g id="surface1">
<path d="M 48.066406 0 C 3.492188 0 0.0195312 39.261719 0.0195312 51.289062 C 0.0195312 71.855469 11.988281 73.234375 12.464844 73.34375 L 22.328125 73.34375 L 22.328125 81.941406 C 22.328125 87.578125 28.152344 89.582031 33.699219 89.582031 C 34.726562 89.613281 35.589844 88.808594 35.625 87.777344 C 35.625 87.761719 35.628906 87.746094 35.628906 87.726562 L 35.628906 77.207031 L 37.15625 77.207031 L 37.15625 87.726562 C 37.15625 88.757812 37.988281 89.59375 39.023438 89.59375 L 45.070312 89.59375 C 46.097656 89.59375 46.933594 88.757812 46.933594 87.726562 L 46.933594 77.207031 L 48.464844 77.207031 L 48.464844 87.726562 C 48.464844 88.757812 49.296875 89.59375 50.332031 89.59375 L 56.378906 89.59375 C 57.40625 89.59375 58.242188 88.757812 58.242188 87.726562 L 58.242188 77.207031 L 59.773438 77.207031 L 59.773438 87.726562 C 59.773438 88.757812 60.605469 89.59375 61.640625 89.59375 L 62.433594 89.59375 C 67.894531 89.59375 73.742188 87.59375 73.742188 81.957031 L 73.742188 73.359375 L 83.605469 73.359375 C 84.117188 73.359375 96.109375 71.867188 96.109375 51.304688 C 96.109375 39.261719 92.652344 0 48.066406 0 Z M 83.296875 69.664062 L 71.875 69.664062 C 70.847656 69.664062 70.011719 70.5 70.011719 71.53125 L 70.011719 81.941406 C 70.011719 85.003906 65.734375 85.675781 63.515625 85.8125 L 63.515625 75.339844 C 63.515625 74.304688 62.683594 73.472656 61.648438 73.472656 L 56.378906 73.472656 C 55.34375 73.472656 54.511719 74.304688 54.511719 75.339844 L 54.511719 85.863281 L 52.199219 85.863281 L 52.199219 75.339844 C 52.199219 74.304688 51.359375 73.472656 50.332031 73.472656 L 45.070312 73.472656 C 44.035156 73.472656 43.203125 74.304688 43.203125 75.339844 L 43.203125 85.863281 L 40.875 85.863281 L 40.875 75.339844 C 40.875 74.304688 40.042969 73.472656 39.007812 73.472656 L 33.746094 73.472656 C 32.71875 73.472656 31.878906 74.304688 31.878906 75.339844 L 31.878906 85.765625 C 29.582031 85.527344 26.125 84.707031 26.125 81.941406 L 26.125 71.492188 C 26.125 70.464844 25.285156 69.625 24.257812 69.625 L 12.835938 69.625 C 11.875 69.464844 3.753906 67.648438 3.753906 51.289062 C 3.753906 36.984375 8.070312 3.734375 48.066406 3.734375 C 88.0625 3.734375 92.378906 36.984375 92.378906 51.289062 C 92.378906 67.726562 84.140625 69.503906 83.296875 69.625 Z M 83.296875 69.664062 " style=" fill-rule:nonzero;fill-opacity:1;" stroke="#FFFFFF" fill="#FFFFFF"/>
<path d="M 41.320312 43.863281 C 41.121094 38.726562 38.921875 31.996094 33.363281 29.894531 C 31.816406 29.300781 30.179688 28.992188 28.523438 28.984375 C 21.578125 28.984375 16.964844 34.472656 16.777344 34.707031 L 16.707031 34.816406 C 12.972656 40.15625 11.726562 44.933594 13.085938 49.027344 C 15.023438 54.722656 21.292969 56.679688 21.667969 56.789062 C 23.566406 57.191406 25.507812 57.394531 27.453125 57.386719 C 30.503906 57.453125 33.523438 56.84375 36.3125 55.605469 C 40.265625 53.738281 41.496094 48.355469 41.320312 43.863281 Z M 34.730469 52.222656 C 32.4375 53.230469 29.953125 53.714844 27.453125 53.652344 C 25.835938 53.65625 24.222656 53.503906 22.636719 53.191406 C 22.492188 53.191406 17.898438 51.640625 16.59375 47.792969 C 15.621094 44.921875 16.59375 41.300781 19.679688 37.046875 C 20.0625 36.597656 23.582031 32.71875 28.507812 32.71875 C 29.710938 32.722656 30.90625 32.945312 32.03125 33.378906 C 35.628906 34.671875 37.417969 39.648438 37.59375 44.003906 C 37.742188 47.96875 36.570312 51.355469 34.730469 52.210938 Z M 34.730469 52.222656 " style=" fill-rule:nonzero;fill-opacity:1;" stroke="#FFFFFF" fill="#FFFFFF"/>
<path d="M 79.355469 34.671875 C 79.15625 34.433594 74.554688 28.949219 67.609375 28.949219 C 65.957031 28.957031 64.316406 29.261719 62.769531 29.855469 C 57.207031 31.957031 55.007812 38.703125 54.808594 43.828125 C 54.632812 48.28125 55.855469 53.707031 59.78125 55.558594 C 62.570312 56.792969 65.59375 57.402344 68.640625 57.339844 C 70.625 57.347656 72.605469 57.140625 74.539062 56.710938 C 74.800781 56.640625 81.070312 54.675781 83.023438 48.976562 C 84.417969 44.886719 83.195312 40.109375 79.402344 34.769531 Z M 79.527344 47.753906 C 78.28125 51.617188 73.578125 53.117188 73.609375 53.117188 C 71.96875 53.457031 70.300781 53.625 68.628906 53.617188 C 66.128906 53.679688 63.644531 53.191406 61.355469 52.1875 C 59.511719 51.316406 58.34375 47.945312 58.492188 43.976562 C 58.714844 39.648438 60.503906 34.671875 64.089844 33.425781 C 65.214844 32.996094 66.40625 32.773438 67.609375 32.765625 C 72.496094 32.765625 76.070312 36.660156 76.441406 37.097656 C 79.464844 41.300781 80.5 44.910156 79.527344 47.785156 Z M 79.527344 47.753906 " style=" fill-rule:nonzero;fill-opacity:1;" stroke="#FFFFFF" fill="#FFFFFF"/>
<path d="M 49.570312 51.589844 C 48.90625 50.757812 47.695312 50.621094 46.859375 51.289062 C 46.746094 51.378906 46.652344 51.480469 46.558594 51.589844 C 45.667969 52.832031 41.1875 59.054688 40.675781 62.074219 C 40.445312 63.347656 40.800781 64.65625 41.644531 65.636719 C 43.058594 67.082031 45.007812 67.871094 47.019531 67.8125 C 47.367188 67.8125 47.722656 67.789062 48.066406 67.734375 C 48.410156 67.789062 48.761719 67.8125 49.109375 67.8125 C 51.125 67.871094 53.074219 67.082031 54.488281 65.636719 C 55.339844 64.644531 55.699219 63.320312 55.457031 62.035156 C 54.949219 59.015625 50.46875 52.792969 49.570312 51.589844 Z M 51.636719 63.21875 C 50.9375 63.796875 50.054688 64.109375 49.148438 64.078125 C 48.921875 64.101562 48.691406 64.101562 48.464844 64.078125 L 47.742188 64.078125 C 47.515625 64.101562 47.285156 64.101562 47.058594 64.078125 C 46.152344 64.113281 45.265625 63.808594 44.570312 63.21875 C 44.433594 63.078125 44.386719 62.875 44.433594 62.6875 C 44.632812 61.441406 46.421875 58.484375 48.164062 55.933594 C 49.714844 57.996094 50.972656 60.273438 51.898438 62.6875 C 51.917969 62.898438 51.816406 63.105469 51.636719 63.21875 Z M 51.636719 63.21875 " style=" fill-rule:nonzero;fill-opacity:1;" stroke="#FFFFFF" fill="#FFFFFF"/>
</g>
</svg>
