<svg width="79" height="80" viewBox="0 0 79 80" fill="none" xmlns="http://www.w3.org/2000/svg">
<path d="M39.3161 77.0389C59.6555 77.0389 76.1322 60.5072 76.1322 40.1287C76.1322 19.7501 59.6555 3.21838 39.3161 3.21838C18.9767 3.21838 2.5 19.7501 2.5 40.1287C2.5 60.5072 18.9767 77.0389 39.3161 77.0389Z" stroke="#41D0D0" stroke-width="5"/>
<path d="M67.2466 39.1793C67.2466 42.9768 65.8684 45.5665 63.1149 46.9471C62.3105 47.3504 59.7862 47.8961 55.5399 48.5871C52.7864 49.0482 51.4096 50.1128 51.4096 51.7797V58.7704C51.4096 59.0609 51.4954 59.9507 51.6669 61.4469L51.9257 64.2093C51.9257 65.073 51.7246 66.4845 51.3224 68.4391C50.2325 68.6689 48.9697 68.927 47.5353 69.2181C47.0754 67.49 46.8462 66.3111 46.8462 65.6766C46.8462 65.3903 46.9183 64.9574 47.061 64.3814C47.2031 63.8074 47.2779 63.3759 47.2779 63.0855C47.2779 62.6863 46.921 61.5625 46.2079 59.7222H44.873C44.6959 60.0099 44.6369 60.3836 44.6946 60.8433C44.9238 61.822 45.0096 62.6554 44.9533 63.3463C43.9774 64.0373 42.6287 64.9574 40.9074 66.1081C40.5052 65.9939 40.3631 65.936 40.4757 65.936V59.8083C40.3631 59.522 40.0749 59.4084 39.615 59.4628H38.5828L37.5506 67.5747C36.7448 67.6325 35.7716 67.6325 34.6241 67.5747C34.2205 65.6766 33.5047 62.8584 32.4725 59.1173H31.7834C31.1506 61.1331 30.8074 62.2273 30.7498 62.3994C30.7498 62.6292 30.8211 63.0745 30.9653 63.7359C31.1073 64.3979 31.1801 64.8432 31.1801 65.073C31.1801 65.2451 31.1224 65.6766 31.0085 66.3675L30.7498 68.4391C30.6345 68.5533 30.491 68.6111 30.3194 68.6111C28.5981 68.6111 27.4492 68.1796 26.8768 67.318C26.303 66.4536 26.0724 65.2451 26.1877 63.6904L26.8768 53.335C26.8768 53.1616 26.9331 52.9317 27.0484 52.644C27.161 52.3564 27.22 52.1547 27.22 52.0405C27.22 51.5794 26.732 50.6586 25.7574 49.278C25.5872 49.2216 24.6943 49.0186 23.0897 48.6731C22.1123 48.4432 20.1899 48.0413 17.3231 47.4646C13.3623 46.7186 11.3837 43.5246 11.3837 37.8848C11.3837 29.4838 14.8277 22.493 21.7136 16.9117C21.9977 18.4657 22.4871 20.5358 23.1748 23.1255C23.6923 23.2425 24.8117 23.5006 26.5316 23.9025C26.8775 24.0181 28.6269 24.6513 31.7834 25.8019C30.1746 24.8233 28.082 23.2425 25.4994 21.0547C24.5234 19.904 24.0354 17.9777 24.0354 15.2738C24.0354 14.6406 25.1267 13.8919 27.3078 13.0275C29.257 12.2223 30.7223 11.7639 31.6976 11.6469C34.7956 11.2464 37.1772 11.042 38.8422 11.042C46.0137 11.042 51.8076 12.885 56.2255 16.5676C54.7925 18.2372 52.3245 20.0183 48.8249 21.917C50.203 21.9748 52.2112 21.4305 54.8501 20.277C57.4884 19.1277 58.6078 18.551 58.207 18.551C58.6654 18.551 59.5851 19.4732 60.9619 21.3135C61.9941 22.694 62.8253 23.9335 63.458 25.0236C65.2933 28.3049 66.5266 31.8423 67.1594 35.6398C67.1594 36.9653 67.1875 37.9144 67.2452 38.4883V39.1793H67.2466ZM34.2816 40.7333C34.2816 38.2598 33.2054 35.9144 31.0538 33.6977C28.9008 31.4824 26.5913 30.3764 24.1246 30.3764C21.9435 30.3764 20.0225 31.3041 18.3581 33.1561C16.6931 35.0095 15.8619 37.0665 15.8619 39.3245C15.8619 41.2921 16.8084 42.568 18.7027 43.1461C19.9079 43.4943 21.5983 43.6974 23.7801 43.7538H28.5144C32.3564 43.8116 34.2816 42.8048 34.2816 40.7333ZM43.6623 51.4369V48.7605C43.2615 48.0131 42.8593 47.2361 42.4585 46.4295C42.114 45.2775 41.4825 43.6671 40.5642 41.5949L39.6164 51.6936C39.6164 52.5002 39.4448 52.9021 39.1003 52.9021C38.8711 52.9021 38.6995 52.8457 38.5842 52.7314C38.182 46.6319 37.9809 43.985 37.9809 44.7889V41.7697C37.8656 41.5949 37.7235 41.5089 37.5519 41.5089C35.6 43.5253 34.6255 46.775 34.6255 51.2621C34.6255 53.7369 34.8519 55.2613 35.3131 55.8373C35.773 55.7231 36.2891 55.5214 36.8629 55.2338C37.0921 55.1181 37.7517 55.0603 38.8443 55.0603C39.9315 55.0603 41.2533 55.4058 42.8017 56.0954C43.3754 56.0954 43.6623 54.5428 43.6623 51.4369ZM63.1156 39.4105C63.1156 37.0933 62.2549 35.0232 60.5336 33.1995C58.8109 31.3771 56.8309 30.4639 54.5955 30.4639C52.1851 30.4639 49.9319 31.5698 47.8379 33.7851C45.7426 36.0005 44.6959 38.3163 44.6959 40.7333C44.6959 42.7483 45.6705 43.7538 47.6224 43.7538H57.5206C61.2495 43.6974 63.1156 42.2494 63.1156 39.4105Z" fill="#41D0D0"/>
</svg>
