<svg width="23" height="22" viewBox="0 0 23 22" fill="none" xmlns="http://www.w3.org/2000/svg">
<path d="M11.5024 21.363C17.2498 21.363 21.9067 16.6913 21.9067 10.9315C21.9067 5.17163 17.2498 0.5 11.5024 0.5C5.75499 0.5 1.09811 5.17163 1.09811 10.9315C1.09811 16.6913 5.75499 21.363 11.5024 21.363Z" stroke="white"/>
<path d="M19.5637 10.6575C19.5637 11.7536 19.1659 12.501 18.3712 12.8995C18.139 13.0159 17.4105 13.1734 16.1849 13.3728C15.3902 13.5059 14.9928 13.8132 14.9928 14.2942V16.3119C14.9928 16.3957 15.0176 16.6526 15.0671 17.0844L15.1418 17.8817C15.1418 18.131 15.0837 18.5384 14.9677 19.1025C14.6531 19.1688 14.2886 19.2433 13.8746 19.3273C13.7419 18.8286 13.6757 18.4883 13.6757 18.3052C13.6757 18.2225 13.6965 18.0976 13.7377 17.9313C13.7787 17.7657 13.8003 17.6411 13.8003 17.5573C13.8003 17.4421 13.6973 17.1178 13.4915 16.5866H13.1062C13.0551 16.6697 13.0381 16.7775 13.0547 16.9102C13.1209 17.1926 13.1457 17.4332 13.1294 17.6326C12.8477 17.832 12.4585 18.0976 11.9617 18.4297C11.8456 18.3967 11.8046 18.3801 11.8371 18.3801V16.6115C11.8046 16.5288 11.7214 16.496 11.5887 16.5117H11.2908L10.9928 18.853C10.7603 18.8697 10.4794 18.8697 10.1482 18.853C10.0317 18.3052 9.82511 17.4918 9.52719 16.412H9.32831C9.14567 16.9938 9.04663 17.3096 9.02999 17.3593C9.02999 17.4256 9.05059 17.5541 9.09219 17.745C9.13319 17.9361 9.15419 18.0646 9.15419 18.131C9.15419 18.1806 9.13755 18.3052 9.10467 18.5046L9.02999 19.1025C8.99671 19.1354 8.95531 19.1521 8.90579 19.1521C8.40898 19.1521 8.07739 19.0276 7.91218 18.7789C7.74658 18.5294 7.68002 18.1806 7.7133 17.7319L7.91218 14.7431C7.91218 14.6931 7.92842 14.6267 7.9617 14.5437C7.99419 14.4607 8.01122 14.4025 8.01122 14.3695C8.01122 14.2364 7.87038 13.9707 7.5891 13.5722C7.53997 13.5559 7.28226 13.4973 6.81913 13.3976C6.53706 13.3313 5.98221 13.2153 5.1548 13.0488C4.01164 12.8335 3.44055 11.9117 3.44055 10.2839C3.44055 7.85923 4.43455 5.84155 6.42197 4.23066C6.50397 4.67916 6.64521 5.27664 6.84369 6.02409C6.99305 6.05785 7.31614 6.13234 7.81254 6.24834C7.91238 6.28171 8.4173 6.46445 9.32831 6.79656C8.86399 6.51411 8.26002 6.05785 7.51462 5.42641C7.23294 5.0943 7.0921 4.53834 7.0921 3.75792C7.0921 3.57518 7.40706 3.35907 8.03658 3.10959C8.59915 2.87719 9.02206 2.74491 9.30354 2.71114C10.1977 2.59554 10.8851 2.53654 11.3656 2.53654C13.4355 2.53654 15.1077 3.06848 16.3828 4.13134C15.9692 4.61322 15.2569 5.12727 14.2468 5.67529C14.6446 5.69198 15.2242 5.53486 15.9858 5.20196C16.7473 4.87025 17.0704 4.70379 16.9547 4.70379C17.087 4.70379 17.3524 4.96996 17.7498 5.50109C18.0477 5.89955 18.2876 6.25728 18.4702 6.57191C18.9999 7.51897 19.3559 8.53993 19.5385 9.63597C19.5385 10.0185 19.5467 10.2924 19.5633 10.4581V10.6575H19.5637V10.6575ZM10.0493 11.106C10.0493 10.3922 9.73875 9.71522 9.11774 9.07544C8.49634 8.43605 7.82977 8.11685 7.11785 8.11685C6.48833 8.11685 5.93388 8.3846 5.45352 8.91912C4.97296 9.45403 4.73307 10.0477 4.73307 10.6994C4.73307 11.2673 5.00624 11.6356 5.55296 11.8024C5.9008 11.9029 6.38869 11.9615 7.01841 11.9778H8.38481C9.49371 11.9945 10.0493 11.7039 10.0493 11.106ZM12.7568 14.1953V13.4228C12.6411 13.2071 12.525 12.9829 12.4094 12.7501C12.3099 12.4176 12.1277 11.9528 11.8626 11.3547L11.5891 14.2694C11.5891 14.5022 11.5396 14.6182 11.4401 14.6182C11.374 14.6182 11.3244 14.6019 11.2912 14.5689C11.1751 12.8085 11.117 12.0446 11.117 12.2766V11.4052C11.0838 11.3547 11.0428 11.3299 10.9932 11.3299C10.4299 11.9119 10.1486 12.8498 10.1486 14.1449C10.1486 14.8591 10.214 15.2991 10.3471 15.4654C10.4798 15.4324 10.6288 15.3742 10.7944 15.2912C10.8605 15.2578 11.0509 15.2411 11.3662 15.2411C11.68 15.2411 12.0615 15.3408 12.5084 15.5398C12.674 15.5398 12.7568 15.0917 12.7568 14.1953ZM18.3714 10.7243C18.3714 10.0555 18.123 9.458 17.6262 8.93163C17.129 8.40566 16.5575 8.14208 15.9123 8.14208C15.2167 8.14208 14.5663 8.46127 13.962 9.10066C13.3572 9.74005 13.0551 10.4084 13.0551 11.106C13.0551 11.6876 13.3364 11.9778 13.8998 11.9778H16.7566C17.8328 11.9615 18.3714 11.5436 18.3714 10.7243Z" fill="white"/>
</svg>
