<svg width="22" height="22" viewBox="0 0 22 22" fill="none" xmlns="http://www.w3.org/2000/svg">
<path d="M10.9043 21.3629C16.6517 21.3629 21.3086 16.6913 21.3086 10.9315C21.3086 5.17162 16.6517 0.5 10.9043 0.5C5.15688 0.5 0.5 5.17162 0.5 10.9315C0.5 16.6913 5.15688 21.3629 10.9043 21.3629Z" stroke="black"/>
<path d="M20.3511 12.3346C19.0515 11.5999 18.2181 11.232 17.8519 11.232C17.5856 11.232 17.3775 11.437 17.2271 11.8462C17.077 12.2559 16.7775 12.4599 16.3276 12.4599C16.1442 12.4599 15.7694 12.3932 15.2029 12.2597C14.8863 12.7444 14.7279 13.0534 14.7279 13.1869C14.7279 13.3708 14.8643 13.5873 15.1367 13.8386C15.4091 14.0893 15.6389 14.2142 15.8264 14.2142C15.9457 14.2142 16.1069 14.1894 16.3116 14.1389C16.5158 14.0893 16.6525 14.0641 16.7204 14.0641C16.925 14.0641 17.0268 14.4401 17.0268 15.1919C17.0268 15.9103 16.8604 17.0129 16.5271 18.4998C16.0937 16.7956 15.6357 15.9433 15.1528 15.9433C15.0858 15.9433 14.9485 15.9933 14.7403 16.0942C14.5318 16.194 14.3779 16.244 14.278 16.244C13.7951 16.244 13.3619 15.8017 12.9784 14.9156C12.212 15.0328 11.8285 15.4255 11.8285 16.0942C11.8285 16.4287 11.9824 16.6955 12.2912 16.8957C12.5989 17.0959 12.7536 17.2387 12.7536 17.3218C12.7536 17.7733 12.0951 18.4667 10.7788 19.402C10.0794 19.9032 9.59568 20.2539 9.32965 20.4542C9.56221 20.1538 9.79555 19.7615 10.0295 19.2767C10.2957 18.7255 10.4292 18.2994 10.4292 17.9983C10.4292 17.8315 10.2377 17.5971 9.85438 17.2966C9.47089 16.9962 9.27993 16.6786 9.27993 16.3445C9.27993 16.0609 9.37938 15.7103 9.57944 15.292C9.36274 15.0413 9.10503 14.9156 8.80493 14.9156C8.13837 14.9156 7.80559 15.1333 7.80559 15.5671C7.80559 15.2664 7.80559 15.4918 7.80559 16.2436C7.82183 16.795 7.40546 17.0707 6.55547 17.0707C5.90595 17.0707 4.81411 16.92 3.28172 16.6196C5.01457 16.185 5.8808 15.6839 5.8808 15.116C5.8808 15.1827 5.84752 14.9825 5.78096 14.5145C5.71401 13.9973 6.08087 13.5291 6.88054 13.1116C6.73039 12.3435 6.33124 11.9584 5.68073 11.9584C5.5809 11.9584 5.39708 12.134 5.13105 12.4842C4.86443 12.8359 4.61464 13.0109 4.38169 13.0109C3.98156 13.0109 3.46476 12.5767 2.83227 11.7073C2.53197 11.2735 2.07361 10.63 1.45737 9.77764C1.84046 9.97865 2.22376 10.1789 2.60725 10.3797C3.10702 10.6133 3.50675 10.7305 3.80704 10.7305C4.04039 10.7305 4.26938 10.5257 4.49421 10.1163C4.71903 9.70692 5.01497 9.50214 5.38142 9.50214C5.43174 9.50214 5.76492 9.60225 6.38116 9.80326C6.6973 9.3188 6.85617 8.95948 6.85617 8.7255C6.85617 8.52488 6.73514 8.29527 6.49367 8.03605C6.25181 7.77724 6.03135 7.64773 5.83128 7.64773C5.74769 7.64773 5.61893 7.67256 5.44363 7.72301C5.26911 7.77307 5.13996 7.79829 5.05677 7.79829C4.75647 7.79829 4.60652 7.42229 4.60652 6.67048C4.60652 6.46986 4.79846 5.32576 5.18175 3.23717C5.16472 3.48744 5.27307 3.95561 5.50642 4.64029C5.78968 5.47592 6.12266 5.89344 6.50655 5.89344C6.57271 5.89344 6.70622 5.84338 6.90628 5.74288C7.10595 5.64277 7.26423 5.59311 7.3809 5.59311C7.76399 5.59311 8.08033 5.81041 8.33071 6.24402L8.70569 6.92055C9.05551 6.92055 9.34709 6.79561 9.58004 6.54494C9.81338 6.29427 9.93025 5.99335 9.93025 5.64257C9.93025 5.27511 9.77634 4.99504 9.46792 4.80296C9.1591 4.61089 9.00519 4.4647 9.00519 4.36459C9.00519 4.01341 9.55527 3.4207 10.6548 2.58527C11.5377 1.91728 12.1126 1.52459 12.3796 1.40739C11.6631 2.37651 11.3048 3.08601 11.3048 3.5375C11.3048 3.77148 11.446 4.02235 11.7297 4.28931C12.0795 4.60672 12.2793 4.83236 12.3293 4.96584C12.4956 5.35078 12.479 5.87675 12.2793 6.54474C12.7292 6.86255 13.0705 7.02066 13.3042 7.02066C13.7868 7.02066 14.0288 6.76959 14.0288 6.26885C14.0288 6.21879 14.008 6.06009 13.9666 5.79293C13.9244 5.52597 13.9126 5.37541 13.9288 5.34184C13.9954 5.10786 14.4537 4.99067 15.3033 4.99067C15.8364 4.99067 16.944 5.14123 18.6274 5.44215C18.2605 5.54226 17.7108 5.69243 16.9781 5.89304C16.3116 6.09366 15.978 6.3191 15.978 6.56957C15.978 6.68676 16.0194 6.88698 16.103 7.17082C16.1862 7.45526 16.2284 7.66343 16.2284 7.7977C16.2284 8.03129 16.0782 8.24859 15.7785 8.44861L14.9285 9.05065C15.1286 9.41851 15.2617 9.63562 15.3287 9.70196C15.495 9.90218 15.7199 10.0027 16.0033 10.0027C16.2034 10.0027 16.3864 9.82729 16.553 9.47671C16.7194 9.12554 16.9864 8.95034 17.3527 8.95034C17.8023 8.95034 18.311 9.36826 18.8774 10.2039C19.1929 10.6727 19.6845 11.3824 20.3511 12.3346ZM14.8033 10.8814C14.8033 9.8126 14.4113 8.885 13.6283 8.09942C12.8453 7.31423 11.9206 6.92154 10.8543 6.92154C9.77099 6.92154 8.83781 7.31026 8.05518 8.0873C7.27215 8.86394 6.87202 9.79551 6.85577 10.8812C6.83874 11.9504 7.23451 12.8735 8.04269 13.6497C8.85088 14.4268 9.78803 14.8155 10.8541 14.8155C11.987 14.8155 12.9324 14.4434 13.6903 13.7002C14.449 12.9573 14.8196 12.0178 14.8033 10.8814ZM14.4284 10.8814C14.4284 11.9006 14.0867 12.7448 13.4035 13.412C12.7199 14.0807 11.8703 14.4148 10.8543 14.4148C9.87122 14.4148 9.02976 14.0726 8.33032 13.3871C7.63088 12.7029 7.28066 11.8672 7.28066 10.8814C7.28066 9.9127 7.63425 9.08104 8.3422 8.38802C9.05095 7.69481 9.88786 7.3476 10.8543 7.3476C11.8204 7.3476 12.6577 7.69838 13.366 8.40054C14.074 9.1023 14.4284 9.92899 14.4284 10.8814Z" fill="black"/>
</svg>
