<svg width="23" height="22" viewBox="0 0 23 22" fill="none" xmlns="http://www.w3.org/2000/svg">
<path d="M11.1001 21.3633C16.848 21.3633 21.5048 16.6914 21.5048 10.9315C21.5048 5.17184 16.848 0.500397 11.1001 0.500397C5.35288 0.500397 0.696152 5.17186 0.696152 10.9315C0.696152 16.6914 5.35284 21.3633 11.1001 21.3633Z" stroke="white"/>
<path d="M19.7693 12.1684C19.7693 12.4997 19.6415 12.7968 19.3858 13.0618C19.1305 13.3264 18.8371 13.4587 18.5071 13.4587C17.9798 13.4587 17.5913 13.2104 17.3445 12.7142L16.1815 12.6646C15.9335 12.6646 15.4468 12.7724 14.7214 12.9873C13.9461 13.2022 13.5004 13.376 13.3851 13.5083C13.2037 13.7066 13.0555 14.1702 12.9398 14.8979C12.8404 15.4934 12.7916 15.9318 12.7916 16.2131C12.7916 16.6592 12.8614 16.9863 13.0018 17.1931C13.1423 17.3999 13.4309 17.5737 13.8677 17.7141C14.3044 17.8545 14.573 17.9334 14.6721 17.9499C14.7379 17.9499 14.845 17.9417 14.994 17.9251H15.2907C15.5047 17.9251 15.7275 17.9588 15.9589 18.0244C16.2889 18.1237 16.4293 18.256 16.3798 18.4216C16.1484 18.3887 15.7445 18.4383 15.1673 18.5706L15.8598 18.9178C15.8598 19.1164 15.5793 19.2154 15.0187 19.2154C14.8698 19.2154 14.6679 19.1824 14.412 19.1164C14.1563 19.0497 13.9871 19.0171 13.9051 19.0171H13.5832C13.567 19.1824 13.517 19.4303 13.4346 19.7612C13.1537 19.7445 12.8245 19.5789 12.445 19.265C12.0651 18.9512 11.8264 18.7937 11.7277 18.7937C11.6283 18.7937 11.4878 18.9512 11.3068 19.265C11.1249 19.5789 11.0344 19.7942 11.0344 19.9102C10.8201 19.7942 10.639 19.5789 10.4897 19.265C10.4239 19.0497 10.3496 18.8348 10.2676 18.6199C10.1028 18.6366 9.79715 18.9842 9.35225 19.6623H9.22804C9.19516 19.6122 9.07057 19.265 8.85703 18.6199C8.34557 18.4546 7.86738 18.372 7.42168 18.372C7.20735 18.372 6.87734 18.4216 6.43204 18.5206L5.73952 18.4713C5.83817 18.372 6.12678 18.1819 6.60536 17.9006C7.16595 17.5697 7.59501 17.4041 7.89214 17.4041C7.94087 17.4041 8.00664 17.4126 8.09023 17.4289C8.17224 17.446 8.2388 17.4537 8.28832 17.4537C8.40281 17.4537 8.58901 17.3917 8.84475 17.2674C9.10048 17.1437 9.24865 17.0318 9.28965 16.9329C9.33145 16.8328 9.35225 16.5768 9.35225 16.1632C9.35225 15.2205 9.10464 14.5176 8.60942 14.0544C8.17996 13.6408 7.4712 13.3433 6.48116 13.1609C6.21731 14.1036 5.47488 14.5758 4.25466 14.5758C3.85848 14.5758 3.4627 14.336 3.06692 13.8561C2.67154 13.3762 2.47345 12.9379 2.47345 12.541C2.47345 11.9288 2.72839 11.4245 3.23985 11.0269C2.82783 10.5974 2.62162 10.159 2.62162 9.71252C2.62162 9.29858 2.74899 8.93508 3.00512 8.62006C3.26085 8.30662 3.59483 8.12428 4.00724 8.07422C3.97436 7.54547 4.14729 7.18118 4.52683 6.98255C4.34538 6.80101 4.25485 6.47863 4.25485 6.01543C4.25485 5.46959 4.4363 5.01453 4.7992 4.65064C5.1617 4.28675 5.61552 4.10441 6.15986 4.10441C6.75413 4.10441 7.24083 4.31198 7.61997 4.72513C8.09855 3.08763 9.1296 2.26868 10.7127 2.26868C11.5376 2.26868 12.2633 2.59959 12.8905 3.26143C13.1215 3.50932 13.2367 3.642 13.2367 3.65789C13.0387 3.65789 13.1381 3.62055 13.5339 3.54646C13.9293 3.47197 14.2179 3.43463 14.4001 3.43463C15.0431 3.43463 15.6122 3.67438 16.1074 4.15427C16.5361 4.5845 16.8332 5.12994 16.9984 5.79177C17.1133 5.80846 17.2952 5.85772 17.5428 5.94035C17.9053 6.12308 18.0871 6.43652 18.0871 6.88344C18.0871 6.96647 18.0206 7.12358 17.889 7.35479C18.9444 7.95028 19.4726 8.77737 19.4726 9.83607C19.4726 10.1336 19.3573 10.548 19.1263 11.0769C19.5554 11.3246 19.7693 11.6889 19.7693 12.1684ZM9.5743 13.26V12.9377C9.5743 12.5575 9.38889 12.2099 9.01787 11.8957C8.64646 11.5814 8.27108 11.4243 7.89194 11.4243C7.42961 11.4243 7.00134 11.5318 6.60516 11.7463C7.47933 11.697 8.46937 12.2017 9.5743 13.26ZM9.1294 10.1835C8.88179 9.90181 8.66746 9.61241 8.48561 9.31486C7.7927 9.49681 7.44644 9.70358 7.44644 9.93479C7.64453 9.9189 7.93315 9.95564 8.31229 10.0468C8.69143 10.138 8.96419 10.1835 9.1294 10.1835ZM10.639 9.41418V8.32251C10.2428 8.25656 10.003 8.2232 9.92135 8.2232V8.59523L10.639 9.41418ZM13.8556 8.71937C13.6575 8.63674 13.2861 8.47108 12.7421 8.2232V10.3569C13.517 9.90996 13.8881 9.36412 13.8556 8.71937ZM15.2158 11.6474L14.6719 10.9774C14.3423 11.2092 14.0079 11.445 13.6694 11.6847C13.3308 11.9245 13.0383 12.1938 12.7914 12.4911C13.5337 12.0935 14.3423 11.813 15.2158 11.6474Z" fill="white"/>
</svg>
