<svg width="79" height="80" viewBox="0 0 79 80" fill="none" xmlns="http://www.w3.org/2000/svg">
<path d="M39.3147 76.8592C59.6561 76.8592 76.1322 60.3266 76.1322 39.9476C76.1322 19.5699 59.6559 3.03882 39.3147 3.03882C18.9762 3.03882 2.5 19.57 2.5 39.9476C2.5 60.3265 18.976 76.8592 39.3147 76.8592Z" stroke="#41D0D0" stroke-width="5"/>
<path d="M69.3516 44.2334C69.3516 45.3813 68.9089 46.4109 68.0229 47.3289C67.1382 48.2456 66.1217 48.704 64.9783 48.704C63.1513 48.704 61.8054 47.8437 60.9502 46.1246L56.9208 45.9525C56.0615 45.9525 54.3752 46.3262 51.8619 47.0709C49.1756 47.8155 47.6314 48.4177 47.2319 48.876C46.6032 49.5628 46.0899 51.1691 45.689 53.6907C45.3445 55.7539 45.1757 57.2728 45.1757 58.2473C45.1757 59.793 45.4173 60.9265 45.9039 61.6429C46.3905 62.3593 47.3905 62.9615 48.9038 63.4481C50.4172 63.9346 51.3478 64.2078 51.691 64.265C51.9188 64.265 52.2902 64.2368 52.8063 64.1789H53.8344C54.5756 64.1789 55.3477 64.2959 56.1494 64.523C57.2928 64.8671 57.7794 65.3255 57.6078 65.8995C56.8062 65.7852 55.4068 65.9573 53.4068 66.4156L55.8062 67.6186C55.8062 68.3068 54.8344 68.6495 52.8921 68.6495C52.3759 68.6495 51.6766 68.5353 50.7898 68.3068C49.9038 68.0756 49.3177 67.9627 49.0335 67.9627H47.9182C47.862 68.5353 47.689 69.3942 47.4035 70.5407C46.4303 70.4829 45.2896 69.9089 43.9746 68.8216C42.6582 67.7342 41.8312 67.1885 41.4894 67.1885C41.1449 67.1885 40.6583 67.7342 40.031 68.8216C39.4009 69.9089 39.0873 70.655 39.0873 71.0569C38.3447 70.655 37.7174 69.9089 37.1999 68.8216C36.972 68.0756 36.7146 67.3309 36.4305 66.5863C35.8595 66.6441 34.8005 67.8485 33.259 70.198H32.8286C32.7147 70.0246 32.283 68.8216 31.5431 66.5863C29.771 66.0137 28.1143 65.7274 26.57 65.7274C25.8274 65.7274 24.684 65.8995 23.1411 66.2422L20.7417 66.0715C21.0835 65.7274 22.0835 65.0688 23.7417 64.0943C25.684 62.9477 27.1705 62.3738 28.2 62.3738C28.3689 62.3738 28.5967 62.4034 28.8864 62.4598C29.1705 62.519 29.4011 62.5458 29.5727 62.5458C29.9694 62.5458 30.6145 62.3311 31.5006 61.9003C32.3866 61.4715 32.9 61.0841 33.0421 60.7414C33.1869 60.3945 33.259 59.5074 33.259 58.0746C33.259 54.8083 32.4011 52.3728 30.6852 50.7679C29.1973 49.335 26.7416 48.3041 23.3113 47.6723C22.3971 50.9386 19.8248 52.5744 15.597 52.5744C14.2243 52.5744 12.8531 51.7438 11.4818 50.0811C10.1119 48.4184 9.42554 46.8995 9.42554 45.5245C9.42554 43.4034 10.3088 41.6561 12.0809 40.2783C10.6534 38.7904 9.93891 37.2715 9.93891 35.7244C9.93891 34.2902 10.3802 33.0308 11.2676 31.9393C12.1537 30.8533 13.3108 30.2215 14.7398 30.0481C14.6258 28.2161 15.225 26.9539 16.54 26.2657C15.9113 25.6367 15.5977 24.5197 15.5977 22.9148C15.5977 21.0237 16.2264 19.447 17.4837 18.1862C18.7397 16.9254 20.3121 16.2936 22.1981 16.2936C24.2571 16.2936 25.9434 17.0128 27.257 18.4443C28.9152 12.7707 32.4875 9.93323 37.9727 9.93323C40.8305 9.93323 43.3452 11.0798 45.5182 13.3729C46.3184 14.2318 46.7179 14.6915 46.7179 14.7465C46.0315 14.7465 46.3761 14.6172 47.7473 14.3605C49.1173 14.1024 50.1172 13.973 50.7487 13.973C52.9765 13.973 54.9483 14.8037 56.6641 16.4664C58.1493 17.957 59.1788 19.8468 59.7512 22.1399C60.1493 22.1977 60.7793 22.3684 61.6373 22.6547C62.8932 23.2879 63.5233 24.3738 63.5233 25.9223C63.5233 26.21 63.2927 26.7543 62.837 27.5554C66.4937 29.6187 68.3235 32.4843 68.3235 36.1525C68.3235 37.1834 67.924 38.619 67.1238 40.4517C68.6103 41.3099 69.3516 42.572 69.3516 44.2334ZM34.0283 48.0158V46.8988C34.0283 45.5816 33.3859 44.3772 32.1004 43.2885C30.8136 42.1997 29.513 41.6554 28.1994 41.6554C26.5975 41.6554 25.1136 42.0277 23.741 42.7709C26.7697 42.6003 30.2 44.349 34.0283 48.0158ZM32.4868 37.3561C31.6289 36.3803 30.8863 35.3776 30.2563 34.3466C27.8555 34.977 26.6558 35.6934 26.6558 36.4945C27.3421 36.4395 28.3421 36.5668 29.6557 36.8827C30.9694 37.1985 31.9144 37.3561 32.4868 37.3561ZM37.7174 34.6907V30.9083C36.3447 30.6799 35.5136 30.5642 35.2308 30.5642V31.8533L37.7174 34.6907ZM48.8619 32.2834C48.1756 31.9971 46.8888 31.4231 45.0041 30.5642V37.9569C47.689 36.4085 48.9745 34.5173 48.8619 32.2834ZM53.575 42.4282L51.6903 40.1069C50.5483 40.91 49.3897 41.7269 48.2168 42.5576C47.0439 43.3883 46.0302 44.3215 45.175 45.3517C47.7467 43.9739 50.5483 43.0022 53.575 42.4282Z" fill="#41D0D0"/>
</svg>
