<svg width="67" height="67" viewBox="0 0 67 67" fill="none" xmlns="http://www.w3.org/2000/svg">
<path d="M33.2467 64.0741C50.1114 64.0741 63.7947 50.4381 63.7947 33.6028C63.7947 16.7675 50.1114 3.13141 33.2467 3.13141C16.3819 3.13141 2.69862 16.7675 2.69862 33.6028C2.69862 50.4381 16.3819 64.0741 33.2467 64.0741Z" stroke="#41D0D0" stroke-width="5"/>
<path d="M43.0567 52.4661C40.3714 55.1911 37.0634 56.5538 33.1344 56.5538C28.7247 56.5538 25.226 55.049 22.6382 52.0376C20.193 49.1694 18.9712 45.5135 18.9712 41.0694C18.9712 36.2902 21.0563 30.8397 25.226 24.7207C28.6276 19.7032 32.6301 15.3055 37.2317 11.5294C36.5602 14.5889 36.2259 16.7628 36.2259 18.0534C36.2259 21.0178 37.1593 23.9089 39.0284 26.729C41.3295 30.0744 43.078 32.5616 44.2773 34.1851C46.1465 37.0063 47.081 39.7542 47.081 42.4294C47.0821 46.3974 45.7398 49.7433 43.0567 52.4661ZM42.9843 37.159C42.2657 35.5585 41.4265 34.495 40.4678 33.9686C40.6115 34.2561 40.6838 34.6623 40.6838 35.1881C40.6838 36.1923 40.3966 37.6256 39.8205 39.4896L38.8871 42.3578C38.8871 44.0305 39.724 44.8674 41.4024 44.8674C43.1751 44.8674 44.0625 43.6954 44.0625 41.3536C44.0625 40.1598 43.7035 38.7623 42.9843 37.159Z" fill="#41D0D0"/>
</svg>
