<svg width="23" height="22" viewBox="0 0 23 22" fill="none" xmlns="http://www.w3.org/2000/svg">
<path d="M11.7034 21.3633C17.4508 21.3633 22.1077 16.6917 22.1077 10.9319C22.1077 5.17201 17.4508 0.500397 11.7034 0.500397C5.95598 0.500397 1.2991 5.17201 1.2991 10.9319C1.2991 16.6917 5.95598 21.3633 11.7034 21.3633Z" stroke="white"/>
<path d="M15.1675 17.6295C14.2193 18.597 13.0512 19.0809 11.6638 19.0809C10.1066 19.0809 8.87114 18.5466 7.95736 17.4773C7.09391 16.459 6.66248 15.1609 6.66248 13.583C6.66248 11.8861 7.39876 9.95087 8.87114 7.77826C10.0723 5.99675 11.4857 4.43532 13.1106 3.09457C12.8735 4.18088 12.7554 4.95275 12.7554 5.41099C12.7554 6.46353 13.085 7.49005 13.7451 8.49134C14.5576 9.67915 15.175 10.5623 15.5986 11.1387C16.2586 12.1404 16.5886 13.116 16.5886 14.0659C16.589 15.4748 16.115 16.6628 15.1675 17.6295ZM15.142 12.1946C14.8882 11.6263 14.5919 11.2487 14.2533 11.0618C14.3041 11.1639 14.3296 11.3081 14.3296 11.4948C14.3296 11.8514 14.2282 12.3602 14.0248 13.0221L13.6951 14.0405C13.6951 14.6344 13.9907 14.9315 14.5834 14.9315C15.2093 14.9315 15.5227 14.5154 15.5227 13.6839C15.5227 13.26 15.3959 12.7639 15.142 12.1946Z" fill="white"/>
</svg>
